# xmcd
#
# Track frame offsets:
#	150
#	12398
#	23600
#	34465
#	47335
#	64793
#	77875
#	92273
#	100043
#	119635
#	133265
#	147463
#	157578
#	171805
#
# Disc length: 2458 seconds
#
# Revision: 1
# Processed by: cddbd v1.5.2PL0 Copyright (c) Steve Scherf et al.
# Submitted via: audiograbber 1.83.01
#
DISCID=af09980e
DTITLE=Jeff Taylor - Steel guitar
DYEAR=1994
DGENRE=Country
TTITLE0=Red River Valley
TTITLE1=San Antonio Rose
TTITLE2=Help me make it through the night
TTITLE3=Streets of Laredo
TTITLE4=Sunday mornin' comin' down
TTITLE5=Some broken hearts never mend
TTITLE6=Take me home country roads
TTITLE7=Deep in the heart of Texas
TTITLE8=Rose of Cimarron
TTITLE9=Top of the world
TTITLE10=On the top of old smokie
TTITLE11=Mister Sandman
TTITLE12=Gentle on m mind
TTITLE13=Girl on the Billboard
EXTD=
EXTT0=
EXTT1=
EXTT2=
EXTT3=
EXTT4=
EXTT5=
EXTT6=
EXTT7=
EXTT8=
EXTT9=
EXTT10=
EXTT11=
EXTT12=
EXTT13=
PLAYORDER=
